#!OML:ASF F:\VICON\USERDATA\INSTALL\rory3\rory3.ASF
:FULLY-SPECIFIED
:DEGREES
186
root 0.133728 17.9903 -0.96827 1.81524 -8.75815 1.45873
lowerback -0.249995 -0.456704 -2.9251
upperback -0.383779 -0.604587 1.72445
thorax -0.204636 -0.293374 3.41214
lowerneck -21.3428 -0.0336523 -8.24024
upperneck 32.7996 3.02677 0.363087
head 14.8945 0.259543 2.12845
rclavicle -2.42269e-014 -5.56597e-015
rhumerus -12.6226 44.2029 -77.6625
rradius 116.067
rwrist 37.2707
rhand -6.74841 21.1782
rfingers 7.12502
rthumb 19.1128 -7.90272
lclavicle -2.42269e-014 -5.56597e-015
lhumerus -36.5797 -30.1302 104.583
lradius 86.916
lwrist 11.9436
lhand -17.8794 19.2637
lfingers 7.12502
lthumb 8.38676 49.0772
rfemur -7.65095 7.59355 14.2436
rtibia 24.6492
rfoot -16.0497 -3.63241
rtoes 3.9384
lfemur -0.0463194 -1.37324 -22.2378
ltibia 12.7809
lfoot -10.4868 3.76329
ltoes -11.6051
187
root 0.134073 17.9924 -0.973459 1.86917 -8.70944 1.42688
lowerback -0.296384 -0.468642 -2.85114
upperback -0.362079 -0.619461 1.71032
thorax -0.156052 -0.302204 3.35521
lowerneck -21.3976 -0.0330231 -8.21038
upperneck 32.7683 3.00721 0.400811
head 14.892 0.261685 2.13568
rclavicle -2.71962e-014 3.97569e-016
rhumerus -12.4666 44.1117 -77.5057
rradius 116.266
rwrist 37.1527
rhand -6.32964 21.3737
rfingers 7.12502
rthumb 19.5154 -7.66693
lclavicle -2.71962e-014 3.97569e-016
lhumerus -36.4611 -30.2062 104.405
lradius 86.8665
lwrist 11.779
lhand -18.3563 19.0967
lfingers 7.12502
lthumb 7.92648 48.9281
rfemur -7.71841 7.56685 14.2761
rtibia 24.6585
rfoot -16.0678 -3.65562
rtoes 4.28461
lfemur -0.140237 -1.41677 -22.1961
ltibia 12.8022
lfoot -10.4923 3.75286
ltoes -11.2861
188
root 0.133836 17.994 -0.977147 1.85797 -8.6786 1.48582
lowerback -0.29673 -0.471089 -2.87046
upperback -0.318387 -0.622599 1.65758
thorax -0.111158 -0.305208 3.31141
lowerneck -21.5398 -0.0541625 -8.04349
upperneck 32.7797 2.96304 0.302331
head 14.9363 0.247694 2.06029
rclavicle 2.94201e-014 -5.56597e-015
rhumerus -12.2375 44.0789 -77.3462
rradius 116.488
rwrist 36.975
rhand -5.77434 21.1132
rfingers 7.12502
rthumb 20.0493 -7.87233
lclavicle 2.94201e-014 -5.56597e-015
lhumerus -36.3246 -30.2557 104.196
lradius 86.8305
lwrist 11.6051
lhand -18.3766 19.4136
lfingers 7.12502
lthumb 7.90689 49.2458
rfemur -7.73062 7.60393 14.2215
rtibia 24.682
rfoot -16.1074 -3.71408
rtoes 4.32829
lfemur -0.161705 -1.37072 -22.2451
ltibia 12.7986
lfoot -10.4833 3.65289
ltoes -11.2564
189
root 0.133854 17.9937 -0.98058 1.84618 -8.69535 1.51712
lowerback -0.290618 -0.4576 -2.80637
upperback -0.269834 -0.604715 1.57163
thorax -0.0677387 -0.297843 3.18642
lowerneck -21.7068 -0.0733439 -7.85364
upperneck 32.7889 2.90347 0.234438
head 14.9847 0.234567 1.99099
rclavicle -1.57785e-014 1.27222e-014
rhumerus -11.8822 44.081 -77.1435
rradius 116.64
rwrist 36.9356
rhand -5.25032 20.5858
rfingers 7.12502
rthumb 20.5529 -8.34622
lclavicle -1.57785e-014 1.27222e-014
lhumerus -36.1322 -30.3788 103.9
lradius 86.7722
lwrist 11.3752
lhand -18.3174 19.8149
lfingers 7.12502
lthumb 7.96404 49.6448
rfemur -7.75005 7.61489 14.1888
rtibia 24.6922
rfoot -16.0696 -3.72276
rtoes 4.067
lfemur -0.168475 -1.31675 -22.2712
ltibia 12.7967
lfoot -10.4376 3.62647
ltoes -11.5918
190
root 0.134456 17.9939 -0.9844 1.86705 -8.69489 1.58181
lowerback -0.40846 -0.453372 -2.66866
upperback -0.190219 -0.596295 1.40003
thorax 0.0761605 -0.297254 2.9305
lowerneck -21.7186 -0.0658504 -7.72412
upperneck 32.6499 2.82039 0.337906
head 14.9237 0.2373 1.99457
rclavicle -1.50207e-014 1.59028e-015
rhumerus -11.5221 44.0396 -77.059
rradius 116.683
rwrist 37.4353
rhand -5.00229 19.9133
rfingers 7.12502
rthumb 20.7912 -8.99276
lclavicle -1.50207e-014 1.59028e-015
lhumerus -35.9156 -30.7175 103.528
lradius 86.7108
lwrist 11.3702
lhand -18.7589 20.01
lfingers 7.12502
lthumb 7.53783 49.8557
rfemur -7.81843 7.56206 14.1109
rtibia 24.7058
rfoot -16.0005 -3.73007
rtoes 3.7938
lfemur -0.217153 -1.3029 -22.3394
ltibia 12.7959
lfoot -10.3991 3.63487
ltoes -11.9721
191
root 0.134513 17.9934 -0.987921 1.86163 -8.6771 1.50949
lowerback -0.408676 -0.474972 -2.51075
upperback -0.172635 -0.625604 1.37298
thorax 0.0944137 -0.31247 2.81341
lowerneck -21.6103 -0.0318221 -7.75573
upperneck 32.5558 2.82658 0.449333
head 14.8512 0.25745 2.04444
rclavicle -1.28465e-014 -2.38542e-015
rhumerus -11.2886 44.2036 -76.9074
rradius 116.698
rwrist 38.1783
rhand -4.86959 19.1181
rfingers 7.12502
rthumb 20.9187 -9.77398
lclavicle -1.28465e-014 -2.38542e-015
lhumerus -35.9 -30.867 103.41
lradius 86.7257
lwrist 11.6097
lhand -20.5497 20.0494
lfingers 7.12502
lthumb 5.80914 49.9498
rfemur -7.8138 7.58241 14.2053
rtibia 24.7129
rfoot -15.9928 -3.78223
rtoes 3.85235
lfemur -0.226075 -1.26479 -22.2485
ltibia 12.8167
lfoot -10.4298 3.54477
ltoes -12.0453
192
root 0.133009 17.9936 -0.991788 1.82168 -8.69352 1.47934
lowerback -0.32663 -0.509167 -2.52921
upperback -0.191213 -0.673063 1.44546
thorax 0.0336518 -0.335054 2.89905
lowerneck -21.4308 0.029277 -7.89549
upperneck 32.4794 2.92963 0.501943
head 14.7676 0.296119 2.10509
rclavicle 1.42628e-014 3.18055e-015
rhumerus -11.0586 44.5383 -76.634
rradius 116.713
rwrist 39.055
rhand -4.5856 18.2634
rfingers 7.12502
rthumb 21.1915 -10.5983
lclavicle 1.42628e-014 3.18055e-015
lhumerus -35.9582 -30.6986 103.386
lradius 86.7483
lwrist 11.6579
lhand -21.3524 19.841
lfingers 7.12502
lthumb 5.03407 49.7612
rfemur -7.79554 7.6315 14.2548
rtibia 24.7171
rfoot -15.979 -3.8204
rtoes 3.87557
lfemur -0.200889 -1.25059 -22.2066
ltibia 12.829
lfoot -10.4411 3.53004
ltoes -11.7422
193
root 0.132087 17.9947 -0.994899 1.85023 -8.69602 1.50753
lowerback -0.373745 -0.547742 -2.59625
upperback -0.183223 -0.723399 1.5094
thorax 0.0733783 -0.360979 3.00188
lowerneck -21.2878 0.0672186 -8.07781
upperneck 32.3569 3.00494 0.58626
head 14.6712 0.324294 2.18021
rclavicle 6.96989e-015 -3.97569e-016
rhumerus -10.7015 44.8257 -76.2449
rradius 116.728
rwrist 39.7432
rhand -4.1266 17.4236
rfingers 7.12502
rthumb 21.6324 -11.388
lclavicle 6.96989e-015 -3.97569e-016
lhumerus -35.8711 -30.4747 103.295
lradius 86.7253
lwrist 11.3645
lhand -21.5245 19.6693
lfingers 7.12502
lthumb 4.8679 49.5934
rfemur -7.8372 7.64415 14.2228
rtibia 24.7095
rfoot -15.9818 -3.84151
rtoes 3.76864
lfemur -0.257806 -1.28288 -22.2349
ltibia 12.849
lfoot -10.4239 3.56288
ltoes -11.5029
194
root 0.131925 17.9961 -0.992774 1.88822 -8.78785 1.50804
lowerback -0.476869 -0.537794 -2.60301
upperback -0.162064 -0.707925 1.54564
thorax 0.152324 -0.354816 3.04196
lowerneck -21.2684 0.0696896 -8.12115
upperneck 32.3 3.02535 0.573264
head 14.6401 0.328254 2.18445
rclavicle 1.64991e-014 -9.54166e-015
rhumerus -10.3852 45.0677 -75.8791
rradius 116.794
rwrist 40.1792
rhand -3.56457 16.7025
rfingers 7.12502
rthumb 22.172 -12.046
lclavicle 1.64991e-014 -9.54166e-015
lhumerus -35.7475 -30.3251 103.137
lradius 86.7054
lwrist 10.8151
lhand -21.1824 19.6492
lfingers 7.12502
lthumb 5.19825 49.5655
rfemur -7.89637 7.67307 14.2084
rtibia 24.728
rfoot -15.9683 -3.79733
rtoes 3.60744
lfemur -0.27024 -1.24735 -22.2433
ltibia 12.8297
lfoot -10.4109 3.63322
ltoes -11.8062
195
root 0.133941 17.995 -0.983825 1.93014 -9.05076 1.5162
lowerback -0.690023 -0.467522 -2.57183
upperback -0.0994296 -0.609776 1.55451
thorax 0.328747 -0.309369 3.03212
lowerneck -21.3943 0.0689953 -8.09701
upperneck 32.303 3.04734 0.523678
head 14.6704 0.332064 2.16564
rclavicle 4.69629e-015 1.63003e-014
rhumerus -10.05 45.3968 -75.5305
rradius 116.887
rwrist 40.6701
rhand -2.85559 15.4531
rfingers 7.12502
rthumb 22.8526 -13.213
lclavicle 4.69629e-015 1.63003e-014
lhumerus -35.5307 -30.2211 102.916
lradius 86.6284
lwrist 10.0809
lhand -20.4106 19.782
lfingers 7.12502
lthumb 5.9434 49.6787
rfemur -7.9974 7.75833 14.1575
rtibia 24.7586
rfoot -15.9242 -3.63082
rtoes 3.83425
lfemur -0.239059 -1.22749 -22.2925
ltibia 12.7801
lfoot -10.4104 3.89271
ltoes -11.9727
196
root 0.131277 17.9952 -0.99382 1.923 -8.92443 1.53225
lowerback -0.550696 -0.504782 -2.6403
upperback -0.112299 -0.662101 1.57535
thorax 0.242212 -0.334066 3.09298
lowerneck -21.4044 0.0567877 -8.07753
upperneck 32.2537 3.04408 0.459399
head 14.6529 0.325674 2.13439
rclavicle 3.3048e-015 1.35174e-014
rhumerus -9.78284 45.699 -75.2654
rradius 117.139
rwrist 40.5802
rhand -1.18968 14.084
rfingers 7.12502
rthumb 24.4504 -14.3756
lclavicle 3.3048e-015 1.35174e-014
lhumerus -35.4314 -30.2497 102.775
lradius 86.5968
lwrist 9.59814
lhand -19.9622 19.85
lfingers 7.12502
lthumb 6.37628 49.7341
rfemur -8.00609 7.69052 14.162
rtibia 24.7841
rfoot -15.9407 -3.67266
rtoes 3.78082
lfemur -0.256839 -1.21449 -22.28
ltibia 12.7287
lfoot -10.344 3.74659
ltoes -12.2193
